{"title":"Dallas Buyers Club 2013 DVDScr XVID AC3 HQ Hive-CM8","uid":9431425,"size":1820090438,"categoryP":"video","categoryS":"movies","magnet":"?xt=urn:btih:7b1aaaf760de60fbf58e7d99be1041fa08c37390&amp;dn=Dallas+Buyers+Club+2013+DVDScr+XVID+AC3+HQ+Hive-CM8&amp;tr=udp%3A%2F%2Ftracker.openbittorrent.com%3A80&amp;tr=udp%3A%2F%2Fopen.demonii.com%3A1337&amp;tr=udp%3A%2F%2Ftracker.coppersurfer.tk%3A6969&amp;tr=udp%3A%2F%2Fexodus.desync.com%3A6969","seeders":1,"leechers":0,"uploader":"NewSky005","files":7,"time":1388813003,"description":"Video\nID : 0\nFormat : MPEG-4 Visual\nFormat profile : Advanced Simple@L5\nFormat settings, BVOP : 2\nFormat settings, QPel : Yes\nFormat settings, GMC : No warppoints\nFormat settings, Matrix : Default (H.263)\nMuxing mode : Packed bitstream\nCodec ID : XVID x264 will not save you\nCodec ID/Hint : XviD\nDuration : 1h 56mn\nBit rate : 1 600 Kbps\nWidth : 720 pixels\nHeight : 304 pixels\nDisplay aspect ratio : 2.35:1\nFrame rate : 23.976 fps\nColor space : YUV\nChroma subsampling : 4:2:0\nBit depth : 8 bits\nScan type : Progressive\nCompression mode : Lossy\nBits/(Pixel*Frame) : 0.305\nStream size : 1.31 GiB (78%)\nWriting library : XviD 1.2.1 (UTC 2008-12-04)\n\nAudio\nID : 1\nFormat : AC-3\nFormat/Info : Audio Coding 3\nMode extension : CM (complete main)\nFormat settings, Endianness : Big\nCodec ID : 2000\nDuration : 1h 56mn\nBit rate mode : Constant\nBit rate : 448 Kbps\nChannel(s) : 6 channels\nChannel positions : Front: L C R, Side: L R, LFE\nSampling rate : 48.0 KHz\nBit depth : 16 bits\nCompression mode : Lossy\nDelay relative to video : 26ms\nStream size : 375 MiB (22%)\nAlignment : Split accross interleaves\nInterleave, duration : 42 ms (1.00 video frame)\nInterleave, preload duration : 500 ms\nScreens\n","torrent":{"xt":"urn:btih:7b1aaaf760de60fbf58e7d99be1041fa08c37390","amp;dn":"Dallas+Buyers+Club+2013+DVDScr+XVID+AC3+HQ+Hive-CM8","amp;tr":["udp%3A%2F%2Ftracker.openbittorrent.com%3A80","udp%3A%2F%2Fopen.demonii.com%3A1337","udp%3A%2F%2Ftracker.coppersurfer.tk%3A6969","udp%3A%2F%2Fexodus.desync.com%3A6969"],"infoHash":"7b1aaaf760de60fbf58e7d99be1041fa08c37390","infoHashBuffer":{"type":"Buffer","data":[123,26,170,247,96,222,96,251,245,142,125,153,190,16,65,250,8,195,115,144]},"announce":[],"urlList":[]}}